<mxfile host="app.diagrams.net" modified="2022-04-12T08:44:33.874Z" agent="5.0 (Windows NT 10.0; Win64; x64) AppleWebKit/537.36 (KHTML, like Gecko) Chrome/97.0.4692.99 Safari/537.36" etag="iiihUZLZXICZXufXPKid" version="17.4.3" type="github">
  <diagram id="YNY4TcCav9DQzzPN636h" name="第 1 页">
    <mxGraphModel dx="4543" dy="1114" grid="1" gridSize="10" guides="1" tooltips="1" connect="1" arrows="1" fold="1" page="1" pageScale="1" pageWidth="827" pageHeight="1169" math="0" shadow="0">
      <root>
        <mxCell id="0" />
        <mxCell id="1" parent="0" />
        <mxCell id="V9S5l_bc1M6WXQR4OBQ3-1" value="LN_12.8_001" style="rounded=0;whiteSpace=wrap;html=1;fillColor=#dae8fc;strokeColor=#6c8ebf;" parent="1" vertex="1">
          <mxGeometry x="-2075" y="315" width="120" height="60" as="geometry" />
        </mxCell>
        <mxCell id="V9S5l_bc1M6WXQR4OBQ3-2" value="LN_12.8_002" style="rounded=0;whiteSpace=wrap;html=1;fillColor=#dae8fc;strokeColor=#6c8ebf;" parent="1" vertex="1">
          <mxGeometry x="-1781" y="139" width="120" height="60" as="geometry" />
        </mxCell>
        <mxCell id="V9S5l_bc1M6WXQR4OBQ3-3" value="LN_12.8_003" style="rounded=0;whiteSpace=wrap;html=1;fillColor=#dae8fc;strokeColor=#6c8ebf;" parent="1" vertex="1">
          <mxGeometry x="-1781" y="516" width="120" height="60" as="geometry" />
        </mxCell>
        <mxCell id="V9S5l_bc1M6WXQR4OBQ3-4" value="LN_12.8_004" style="rounded=0;whiteSpace=wrap;html=1;fillColor=#dae8fc;strokeColor=#6c8ebf;" parent="1" vertex="1">
          <mxGeometry x="-1518" y="318" width="120" height="60" as="geometry" />
        </mxCell>
        <mxCell id="V9S5l_bc1M6WXQR4OBQ3-5" value="" style="endArrow=none;html=1;rounded=0;strokeWidth=2;strokeColor=#0000FF;entryX=0;entryY=0.25;entryDx=0;entryDy=0;exitX=0.267;exitY=0.95;exitDx=0;exitDy=0;shape=link;exitPerimeter=0;" parent="1" target="V9S5l_bc1M6WXQR4OBQ3-2" edge="1">
          <mxGeometry width="50" height="50" relative="1" as="geometry">
            <mxPoint x="-2024.99" y="314" as="sourcePoint" />
            <mxPoint x="-1987" y="265" as="targetPoint" />
          </mxGeometry>
        </mxCell>
        <mxCell id="V9S5l_bc1M6WXQR4OBQ3-6" value="" style="endArrow=none;html=1;rounded=0;strokeWidth=2;strokeColor=#0000FF;entryX=0.017;entryY=0.483;entryDx=0;entryDy=0;exitX=0.5;exitY=0;exitDx=0;exitDy=0;entryPerimeter=0;shape=link;" parent="1" target="V9S5l_bc1M6WXQR4OBQ3-4" edge="1">
          <mxGeometry width="50" height="50" relative="1" as="geometry">
            <mxPoint x="-1953" y="349" as="sourcePoint" />
            <mxPoint x="-1782" y="260" as="targetPoint" />
          </mxGeometry>
        </mxCell>
        <mxCell id="V9S5l_bc1M6WXQR4OBQ3-7" value="" style="endArrow=none;html=1;rounded=0;strokeWidth=2;strokeColor=#0000FF;exitX=0.5;exitY=0;exitDx=0;exitDy=0;shape=link;" parent="1" source="V9S5l_bc1M6WXQR4OBQ3-3" edge="1">
          <mxGeometry width="50" height="50" relative="1" as="geometry">
            <mxPoint x="-2005" y="325" as="sourcePoint" />
            <mxPoint x="-1726" y="201" as="targetPoint" />
          </mxGeometry>
        </mxCell>
        <mxCell id="V9S5l_bc1M6WXQR4OBQ3-8" value="" style="endArrow=none;html=1;rounded=0;strokeWidth=2;strokeColor=#0000FF;entryX=1;entryY=0.5;entryDx=0;entryDy=0;exitX=0.5;exitY=0;exitDx=0;exitDy=0;shape=link;" parent="1" source="V9S5l_bc1M6WXQR4OBQ3-4" target="V9S5l_bc1M6WXQR4OBQ3-2" edge="1">
          <mxGeometry width="50" height="50" relative="1" as="geometry">
            <mxPoint x="-1995" y="335" as="sourcePoint" />
            <mxPoint x="-1761" y="189" as="targetPoint" />
          </mxGeometry>
        </mxCell>
        <mxCell id="V9S5l_bc1M6WXQR4OBQ3-9" value="" style="endArrow=none;html=1;rounded=0;strokeWidth=2;strokeColor=#0000FF;entryX=-0.011;entryY=0.633;entryDx=0;entryDy=0;exitX=0.5;exitY=1;exitDx=0;exitDy=0;entryPerimeter=0;shape=link;" parent="1" source="V9S5l_bc1M6WXQR4OBQ3-1" target="V9S5l_bc1M6WXQR4OBQ3-3" edge="1">
          <mxGeometry width="50" height="50" relative="1" as="geometry">
            <mxPoint x="-1943" y="359" as="sourcePoint" />
            <mxPoint x="-1505.96" y="356.98" as="targetPoint" />
          </mxGeometry>
        </mxCell>
        <mxCell id="V9S5l_bc1M6WXQR4OBQ3-10" value="IXIA" style="whiteSpace=wrap;html=1;aspect=fixed;fillColor=#ffe6cc;strokeColor=#d79b00;" parent="1" vertex="1">
          <mxGeometry x="-2170" y="578" width="80" height="80" as="geometry" />
        </mxCell>
        <mxCell id="V9S5l_bc1M6WXQR4OBQ3-11" value="" style="endArrow=none;html=1;rounded=0;strokeColor=#66CC00;strokeWidth=4;" parent="1" edge="1">
          <mxGeometry width="50" height="50" relative="1" as="geometry">
            <mxPoint x="-2089" y="626" as="sourcePoint" />
            <mxPoint x="-1725" y="578" as="targetPoint" />
            <Array as="points">
              <mxPoint x="-1725" y="626" />
            </Array>
          </mxGeometry>
        </mxCell>
        <mxCell id="V9S5l_bc1M6WXQR4OBQ3-12" value="" style="endArrow=none;html=1;rounded=0;strokeColor=#66CC00;strokeWidth=4;exitX=0.5;exitY=1;exitDx=0;exitDy=0;" parent="1" source="V9S5l_bc1M6WXQR4OBQ3-10" edge="1">
          <mxGeometry width="50" height="50" relative="1" as="geometry">
            <mxPoint x="-1756" y="635" as="sourcePoint" />
            <mxPoint x="-1396" y="348" as="targetPoint" />
            <Array as="points">
              <mxPoint x="-2129" y="699" />
              <mxPoint x="-1318" y="699" />
              <mxPoint x="-1318" y="348" />
            </Array>
          </mxGeometry>
        </mxCell>
        <mxCell id="V9S5l_bc1M6WXQR4OBQ3-13" value="" style="endArrow=none;html=1;rounded=0;strokeColor=#66CC00;strokeWidth=4;exitX=0.5;exitY=0;exitDx=0;exitDy=0;" parent="1" source="V9S5l_bc1M6WXQR4OBQ3-10" edge="1">
          <mxGeometry width="50" height="50" relative="1" as="geometry">
            <mxPoint x="-2097" y="560" as="sourcePoint" />
            <mxPoint x="-2076" y="354" as="targetPoint" />
            <Array as="points">
              <mxPoint x="-2134" y="354" />
            </Array>
          </mxGeometry>
        </mxCell>
        <mxCell id="V9S5l_bc1M6WXQR4OBQ3-14" value="" style="endArrow=none;html=1;rounded=0;strokeColor=#66CC00;strokeWidth=4;entryX=0;entryY=0.5;entryDx=0;entryDy=0;exitX=0.5;exitY=0;exitDx=0;exitDy=0;" parent="1" source="V9S5l_bc1M6WXQR4OBQ3-2" target="V9S5l_bc1M6WXQR4OBQ3-10" edge="1">
          <mxGeometry width="50" height="50" relative="1" as="geometry">
            <mxPoint x="-1756" y="635" as="sourcePoint" />
            <mxPoint x="-1706" y="585" as="targetPoint" />
            <Array as="points">
              <mxPoint x="-1721" y="101" />
              <mxPoint x="-2211" y="101" />
              <mxPoint x="-2204" y="618" />
            </Array>
          </mxGeometry>
        </mxCell>
        <mxCell id="V9S5l_bc1M6WXQR4OBQ3-15" value="PG5" style="text;html=1;resizable=0;autosize=1;align=center;verticalAlign=middle;points=[];fillColor=none;strokeColor=none;rounded=0;" parent="1" vertex="1">
          <mxGeometry x="-2129" y="557" width="40" height="20" as="geometry" />
        </mxCell>
        <mxCell id="V9S5l_bc1M6WXQR4OBQ3-16" value="PG7" style="text;html=1;resizable=0;autosize=1;align=center;verticalAlign=middle;points=[];fillColor=none;strokeColor=none;rounded=0;" parent="1" vertex="1">
          <mxGeometry x="-2095" y="601" width="40" height="20" as="geometry" />
        </mxCell>
        <mxCell id="V9S5l_bc1M6WXQR4OBQ3-17" value="PG8" style="text;html=1;resizable=0;autosize=1;align=center;verticalAlign=middle;points=[];fillColor=none;strokeColor=none;rounded=0;" parent="1" vertex="1">
          <mxGeometry x="-2127" y="676" width="40" height="20" as="geometry" />
        </mxCell>
        <mxCell id="V9S5l_bc1M6WXQR4OBQ3-18" value="PG6" style="text;html=1;resizable=0;autosize=1;align=center;verticalAlign=middle;points=[];fillColor=none;strokeColor=none;rounded=0;" parent="1" vertex="1">
          <mxGeometry x="-2230" y="627" width="40" height="20" as="geometry" />
        </mxCell>
        <mxCell id="V9S5l_bc1M6WXQR4OBQ3-19" value="E248-250-252-254" style="text;html=1;resizable=0;autosize=1;align=center;verticalAlign=middle;points=[];fillColor=none;strokeColor=none;rounded=0;" parent="1" vertex="1">
          <mxGeometry x="-2185" y="336" width="110" height="18" as="geometry" />
        </mxCell>
        <mxCell id="V9S5l_bc1M6WXQR4OBQ3-20" value="E16" style="text;html=1;resizable=0;autosize=1;align=center;verticalAlign=middle;points=[];fillColor=none;strokeColor=none;rounded=0;" parent="1" vertex="1">
          <mxGeometry x="-1412" y="380" width="40" height="20" as="geometry" />
        </mxCell>
        <mxCell id="V9S5l_bc1M6WXQR4OBQ3-21" value="&lt;b&gt;Mamual TestGroup-1&lt;/b&gt;" style="text;html=1;resizable=0;autosize=1;align=center;verticalAlign=middle;points=[];fillColor=none;strokeColor=none;rounded=0;" parent="1" vertex="1">
          <mxGeometry x="-1780" y="62" width="129" height="18" as="geometry" />
        </mxCell>
        <mxCell id="V9S5l_bc1M6WXQR4OBQ3-22" value="E0-2-4-6" style="text;html=1;resizable=0;autosize=1;align=center;verticalAlign=middle;points=[];fillColor=none;strokeColor=none;rounded=0;" parent="1" vertex="1">
          <mxGeometry x="-1850" y="141" width="57" height="18" as="geometry" />
        </mxCell>
        <mxCell id="V9S5l_bc1M6WXQR4OBQ3-23" value="E8" style="text;html=1;resizable=0;autosize=1;align=center;verticalAlign=middle;points=[];fillColor=none;strokeColor=none;rounded=0;" parent="1" vertex="1">
          <mxGeometry x="-1460" y="300" width="30" height="20" as="geometry" />
        </mxCell>
        <mxCell id="V9S5l_bc1M6WXQR4OBQ3-24" value="E16-18-20-22" style="text;html=1;resizable=0;autosize=1;align=center;verticalAlign=middle;points=[];fillColor=none;strokeColor=none;rounded=0;" parent="1" vertex="1">
          <mxGeometry x="-1658" y="156" width="83" height="18" as="geometry" />
        </mxCell>
        <mxCell id="V9S5l_bc1M6WXQR4OBQ3-25" value="E16" style="text;html=1;resizable=0;autosize=1;align=center;verticalAlign=middle;points=[];fillColor=none;strokeColor=none;rounded=0;" parent="1" vertex="1">
          <mxGeometry x="-1656" y="567" width="40" height="20" as="geometry" />
        </mxCell>
        <mxCell id="V9S5l_bc1M6WXQR4OBQ3-26" value="E8-10-12-14" style="text;html=1;resizable=0;autosize=1;align=center;verticalAlign=middle;points=[];fillColor=none;strokeColor=none;rounded=0;" parent="1" vertex="1">
          <mxGeometry x="-1716" y="216" width="77" height="18" as="geometry" />
        </mxCell>
        <mxCell id="V9S5l_bc1M6WXQR4OBQ3-27" value="" style="endArrow=none;html=1;rounded=0;strokeWidth=4;strokeColor=#0000FF;entryX=0.672;entryY=0.982;entryDx=0;entryDy=0;entryPerimeter=0;exitX=1;exitY=0.75;exitDx=0;exitDy=0;shape=link;" parent="1" source="V9S5l_bc1M6WXQR4OBQ3-3" target="V9S5l_bc1M6WXQR4OBQ3-4" edge="1">
          <mxGeometry width="50" height="50" relative="1" as="geometry">
            <mxPoint x="-1658" y="557" as="sourcePoint" />
            <mxPoint x="-1477" y="391" as="targetPoint" />
          </mxGeometry>
        </mxCell>
        <mxCell id="V9S5l_bc1M6WXQR4OBQ3-28" value="E40" style="text;html=1;resizable=0;autosize=1;align=center;verticalAlign=middle;points=[];fillColor=none;strokeColor=none;rounded=0;" parent="1" vertex="1">
          <mxGeometry x="-1663" y="497" width="31" height="18" as="geometry" />
        </mxCell>
        <mxCell id="V9S5l_bc1M6WXQR4OBQ3-29" value="E40" style="text;html=1;resizable=0;autosize=1;align=center;verticalAlign=middle;points=[];fillColor=none;strokeColor=none;rounded=0;" parent="1" vertex="1">
          <mxGeometry x="-1541" y="380" width="31" height="18" as="geometry" />
        </mxCell>
        <mxCell id="V9S5l_bc1M6WXQR4OBQ3-30" value="&lt;font&gt;GROUP3&lt;/font&gt;" style="text;html=1;resizable=0;autosize=1;align=center;verticalAlign=middle;points=[];fillColor=none;strokeColor=none;rounded=0;fontColor=#FF0080;" parent="1" vertex="1">
          <mxGeometry x="-1493" y="112" width="61" height="18" as="geometry" />
        </mxCell>
        <mxCell id="V9S5l_bc1M6WXQR4OBQ3-31" value="&lt;font&gt;GROUP4&lt;/font&gt;" style="text;html=1;resizable=0;autosize=1;align=center;verticalAlign=middle;points=[];fillColor=#6666FF;strokeColor=#b85450;rounded=0;fontColor=#0D0D0D;" parent="1" vertex="1">
          <mxGeometry x="-1493" y="229" width="61" height="18" as="geometry" />
        </mxCell>
        <mxCell id="V9S5l_bc1M6WXQR4OBQ3-32" value="PG5, PG6" style="text;html=1;resizable=0;autosize=1;align=center;verticalAlign=middle;points=[];fillColor=none;strokeColor=none;rounded=0;fontColor=#FF3399;" parent="1" vertex="1">
          <mxGeometry x="-1415" y="96" width="65" height="18" as="geometry" />
        </mxCell>
        <mxCell id="V9S5l_bc1M6WXQR4OBQ3-33" value="PG3, PG4" style="text;html=1;resizable=0;autosize=1;align=center;verticalAlign=middle;points=[];fillColor=#6666FF;strokeColor=#b85450;rounded=0;" parent="1" vertex="1">
          <mxGeometry x="-1412" y="206" width="65" height="18" as="geometry" />
        </mxCell>
        <mxCell id="V9S5l_bc1M6WXQR4OBQ3-34" value="LN_12.8_001&lt;br&gt;LN_12.8_002" style="text;html=1;resizable=0;autosize=1;align=center;verticalAlign=middle;points=[];fillColor=none;strokeColor=none;rounded=0;fontColor=#FF0080;" parent="1" vertex="1">
          <mxGeometry x="-1418" y="117" width="82" height="32" as="geometry" />
        </mxCell>
        <mxCell id="V9S5l_bc1M6WXQR4OBQ3-35" value="LN_12.8_003&lt;br&gt;LN_12.8_004" style="text;html=1;resizable=0;autosize=1;align=center;verticalAlign=middle;points=[];fillColor=#6666FF;strokeColor=#99CCFF;rounded=0;" parent="1" vertex="1">
          <mxGeometry x="-1412" y="229" width="82" height="32" as="geometry" />
        </mxCell>
        <mxCell id="V9S5l_bc1M6WXQR4OBQ3-36" value="" style="whiteSpace=wrap;html=1;fontColor=#0000FF;fillColor=none;strokeColor=#FFB570;" parent="1" vertex="1">
          <mxGeometry x="-1504" y="85" width="181" height="79" as="geometry" />
        </mxCell>
        <mxCell id="V9S5l_bc1M6WXQR4OBQ3-37" value="" style="whiteSpace=wrap;html=1;fontColor=#FF66B3;fillColor=none;strokeColor=#0D0D0D;" parent="1" vertex="1">
          <mxGeometry x="-1504" y="199" width="181" height="79" as="geometry" />
        </mxCell>
        <mxCell id="V9S5l_bc1M6WXQR4OBQ3-38" value="" style="endArrow=none;html=1;rounded=0;strokeWidth=2;strokeColor=#0000FF;entryX=-0.025;entryY=0.617;entryDx=0;entryDy=0;shape=link;entryPerimeter=0;" parent="1" target="V9S5l_bc1M6WXQR4OBQ3-2" edge="1">
          <mxGeometry width="50" height="50" relative="1" as="geometry">
            <mxPoint x="-1988" y="313" as="sourcePoint" />
            <mxPoint x="-1771" y="179" as="targetPoint" />
          </mxGeometry>
        </mxCell>
        <mxCell id="V9S5l_bc1M6WXQR4OBQ3-39" value="E0-2-4-6" style="text;html=1;resizable=0;autosize=1;align=center;verticalAlign=middle;points=[];fillColor=none;strokeColor=none;rounded=0;" parent="1" vertex="1">
          <mxGeometry x="-2081" y="291" width="57" height="18" as="geometry" />
        </mxCell>
        <mxCell id="V9S5l_bc1M6WXQR4OBQ3-40" value="E248-250-252-254" style="text;html=1;resizable=0;autosize=1;align=center;verticalAlign=middle;points=[];fillColor=none;strokeColor=none;rounded=0;" parent="1" vertex="1">
          <mxGeometry x="-1719" y="87" width="110" height="18" as="geometry" />
        </mxCell>
        <mxCell id="V9S5l_bc1M6WXQR4OBQ3-41" value="E248-250-252-254" style="text;html=1;resizable=0;autosize=1;align=center;verticalAlign=middle;points=[];fillColor=none;strokeColor=none;rounded=0;" parent="1" vertex="1">
          <mxGeometry x="-1398" y="325" width="110" height="18" as="geometry" />
        </mxCell>
        <mxCell id="V9S5l_bc1M6WXQR4OBQ3-42" value="" style="endArrow=none;html=1;rounded=0;strokeWidth=2;strokeColor=#0000FF;entryX=1;entryY=0.5;entryDx=0;entryDy=0;exitX=0.25;exitY=0;exitDx=0;exitDy=0;shape=link;" parent="1" source="V9S5l_bc1M6WXQR4OBQ3-4" edge="1">
          <mxGeometry width="50" height="50" relative="1" as="geometry">
            <mxPoint x="-1458" y="343" as="sourcePoint" />
            <mxPoint x="-1661" y="194" as="targetPoint" />
          </mxGeometry>
        </mxCell>
        <mxCell id="V9S5l_bc1M6WXQR4OBQ3-43" value="E16-18-20-22" style="text;html=1;resizable=0;autosize=1;align=center;verticalAlign=middle;points=[];fillColor=none;strokeColor=none;rounded=0;" parent="1" vertex="1">
          <mxGeometry x="-1953" y="352" width="83" height="18" as="geometry" />
        </mxCell>
        <mxCell id="V9S5l_bc1M6WXQR4OBQ3-44" value="E0-2-4-6" style="text;html=1;resizable=0;autosize=1;align=center;verticalAlign=middle;points=[];fillColor=none;strokeColor=none;rounded=0;" parent="1" vertex="1">
          <mxGeometry x="-1584" y="349" width="57" height="18" as="geometry" />
        </mxCell>
        <mxCell id="V9S5l_bc1M6WXQR4OBQ3-45" value="E0-2-4-6" style="text;html=1;resizable=0;autosize=1;align=center;verticalAlign=middle;points=[];fillColor=none;strokeColor=none;rounded=0;" parent="1" vertex="1">
          <mxGeometry x="-1846" y="559" width="57" height="18" as="geometry" />
        </mxCell>
        <mxCell id="V9S5l_bc1M6WXQR4OBQ3-46" value="" style="endArrow=none;html=1;rounded=0;strokeWidth=2;strokeColor=#0000FF;exitX=0.5;exitY=0;exitDx=0;exitDy=0;shape=link;" parent="1" edge="1">
          <mxGeometry width="50" height="50" relative="1" as="geometry">
            <mxPoint x="-1709" y="516" as="sourcePoint" />
            <mxPoint x="-1714" y="201" as="targetPoint" />
          </mxGeometry>
        </mxCell>
        <mxCell id="V9S5l_bc1M6WXQR4OBQ3-47" value="E8-10-12-14" style="text;html=1;resizable=0;autosize=1;align=center;verticalAlign=middle;points=[];fillColor=none;strokeColor=none;rounded=0;" parent="1" vertex="1">
          <mxGeometry x="-1802" y="488" width="77" height="18" as="geometry" />
        </mxCell>
        <mxCell id="V9S5l_bc1M6WXQR4OBQ3-48" value="E8-10-12-14" style="text;html=1;resizable=0;autosize=1;align=center;verticalAlign=middle;points=[];fillColor=none;strokeColor=none;rounded=0;" parent="1" vertex="1">
          <mxGeometry x="-2079" y="382" width="77" height="18" as="geometry" />
        </mxCell>
        <mxCell id="V9S5l_bc1M6WXQR4OBQ3-49" value="E248-250-252-254" style="text;html=1;resizable=0;autosize=1;align=center;verticalAlign=middle;points=[];fillColor=none;strokeColor=none;rounded=0;" parent="1" vertex="1">
          <mxGeometry x="-1768" y="633" width="110" height="18" as="geometry" />
        </mxCell>
        <mxCell id="V9S5l_bc1M6WXQR4OBQ3-50" value="" style="endArrow=none;html=1;rounded=0;strokeWidth=2;strokeColor=#0000FF;entryX=0.017;entryY=0.483;entryDx=0;entryDy=0;exitX=0.5;exitY=0;exitDx=0;exitDy=0;entryPerimeter=0;shape=link;" parent="1" edge="1">
          <mxGeometry width="50" height="50" relative="1" as="geometry">
            <mxPoint x="-1953" y="338.02" as="sourcePoint" />
            <mxPoint x="-1515.96" y="336" as="targetPoint" />
          </mxGeometry>
        </mxCell>
        <mxCell id="V9S5l_bc1M6WXQR4OBQ3-51" value="" style="endArrow=none;html=1;rounded=0;strokeWidth=2;strokeColor=#0000FF;exitX=0.5;exitY=1;exitDx=0;exitDy=0;shape=link;" parent="1" edge="1">
          <mxGeometry width="50" height="50" relative="1" as="geometry">
            <mxPoint x="-1996" y="375" as="sourcePoint" />
            <mxPoint x="-1782" y="539" as="targetPoint" />
          </mxGeometry>
        </mxCell>
        <mxCell id="V9S5l_bc1M6WXQR4OBQ3-52" value="" style="endArrow=none;html=1;rounded=0;strokeWidth=4;strokeColor=#0000FF;entryX=0.672;entryY=0.982;entryDx=0;entryDy=0;entryPerimeter=0;exitX=1;exitY=0.75;exitDx=0;exitDy=0;shape=link;" parent="1" edge="1">
          <mxGeometry width="50" height="50" relative="1" as="geometry">
            <mxPoint x="-1651" y="571" as="sourcePoint" />
            <mxPoint x="-1427.36" y="386.9200000000001" as="targetPoint" />
          </mxGeometry>
        </mxCell>
        <mxCell id="V9S5l_bc1M6WXQR4OBQ3-53" value="400G-&amp;gt;&lt;br&gt;4*100G" style="text;html=1;resizable=0;autosize=1;align=center;verticalAlign=middle;points=[];fillColor=none;strokeColor=none;rounded=0;" parent="1" vertex="1">
          <mxGeometry x="-1961" y="456" width="51" height="32" as="geometry" />
        </mxCell>
        <mxCell id="V9S5l_bc1M6WXQR4OBQ3-54" value="4*400G" style="text;html=1;resizable=0;autosize=1;align=center;verticalAlign=middle;points=[];fillColor=none;strokeColor=none;rounded=0;" parent="1" vertex="1">
          <mxGeometry x="-1538" y="504" width="51" height="18" as="geometry" />
        </mxCell>
        <mxCell id="V9S5l_bc1M6WXQR4OBQ3-55" value="400G-&amp;gt;&lt;br&gt;4*100G" style="text;html=1;resizable=0;autosize=1;align=center;verticalAlign=middle;points=[];fillColor=none;strokeColor=none;rounded=0;" parent="1" vertex="1">
          <mxGeometry x="-2083" y="635" width="51" height="32" as="geometry" />
        </mxCell>
        <mxCell id="V9S5l_bc1M6WXQR4OBQ3-56" value="" style="endArrow=classic;html=1;rounded=0;shape=flexArrow;" parent="1" edge="1">
          <mxGeometry width="50" height="50" relative="1" as="geometry">
            <mxPoint x="-1427" y="564" as="sourcePoint" />
            <mxPoint x="-1427" y="403" as="targetPoint" />
          </mxGeometry>
        </mxCell>
        <mxCell id="V9S5l_bc1M6WXQR4OBQ3-57" value="" style="endArrow=classic;html=1;rounded=0;shape=flexArrow;" parent="1" edge="1">
          <mxGeometry width="50" height="50" relative="1" as="geometry">
            <mxPoint x="-1453" y="598" as="sourcePoint" />
            <mxPoint x="-1639" y="598" as="targetPoint" />
          </mxGeometry>
        </mxCell>
        <mxCell id="V9S5l_bc1M6WXQR4OBQ3-58" value="此两处8T替换成12.8T" style="text;html=1;resizable=0;autosize=1;align=center;verticalAlign=middle;points=[];fillColor=#ffe6cc;strokeColor=#d79b00;rounded=0;" parent="1" vertex="1">
          <mxGeometry x="-1497" y="569" width="127" height="18" as="geometry" />
        </mxCell>
      </root>
    </mxGraphModel>
  </diagram>
</mxfile>
